Oswald-Light.ufo
<glyph name="exclam" format="1">
  <advance width="434"/>
  <unicode hex="0021"/>
  <outline>
    <contour>
      <point x="138" y="0" type="line"/>
      <point x="138" y="179" type="line"/>
      <point x="323" y="179" type="line"/>
      <point x="323" y="0" type="line"/>
    </contour>
    <contour>
      <point x="197" y="388" type="line"/>
      <point x="117" y="1719" type="line"/>
      <point x="311" y="1719" type="line"/>
      <point x="251" y="388" type="line"/>
    </contour>
  </outline>
</glyph>
<glyph name="quotedbl" format="1">
  <advance width="694"/>
  <unicode hex="0022"/>
  <outline>
    <contour>
      <point x="475" y="1408" type="line"/>
      <point x="425" y="1715" type="line"/>
      <point x="593" y="1715" type="line"/>
      <point x="567" y="1561"/>
      <point x="568" y="1560"/>
      <point x="542" y="1408" type="curve"/>
    </contour>
    <contour>
      <point x="152" y="1408" type="line"/>
      <point x="102" y="1715" type="line"/>
      <point x="270" y="1715" type="line"/>
      <point x="244" y="1561"/>
      <point x="245" y="1560"/>
      <point x="219" y="1408" type="curve"/>
    </contour>
  </outline>
</glyph>
<glyph name="numbersign" format="1">
  <advance width="1020"/>
  <unicode hex="0023"/>
  <outline>
    <contour>
      <point x="382" y="785" type="line"/>
      <point x="559" y="785" type="line"/>
      <point x="626" y="1024" type="line"/>
      <point x="449" y="1024" type="line"/>
    </contour>
    <contour>
      <point x="18" y="0" type="line"/>
      <point x="203" y="660" type="line"/>
      <point x="48" y="660" type="line"/>
      <point x="48" y="785" type="line"/>
      <point x="238" y="785" type="line"/>
      <point x="305" y="1024" type="line"/>
      <point x="98" y="1024" type="line"/>
      <point x="98" y="1139" type="line"/>
      <point x="337" y="1139" type="line"/>
      <point x="500" y="1721" type="line"/>
      <point x="645" y="1721" type="line"/>
      <point x="482" y="1139" type="line"/>
      <point x="658" y="1139" type="line"/>
      <point x="821" y="1721" type="line"/>
      <point x="966" y="1721" type="line"/>
      <point x="803" y="1139" type="line"/>
      <point x="957" y="1139" type="line"/>
      <point x="957" y="1024" type="line"/>
      <point x="770" y="1024" type="line"/>
      <point x="703" y="785" type="line"/>
      <point x="907" y="785" type="line"/>
      <point x="907" y="660" type="line"/>
      <point x="668" y="660" type="line"/>
      <point x="483" y="0" type="line"/>
      <point x="339" y="0" type="line"/>
      <point x="524" y="660" type="line"/>
      <point x="347" y="660" type="line"/>
      <point x="162" y="0" type="line"/>
    </contour>
  </outline>
</glyph>
<glyph name="quotesingle" format="1">
  <advance width="373"/>
  <unicode hex="0027"/>
  <outline>
    <contour>
      <point x="153" y="1408" type="line"/>
      <point x="102" y="1715" type="line"/>
      <point x="271" y="1715" type="line"/>
      <point x="244" y="1561"/>
      <point x="246" y="1560"/>
      <point x="220" y="1408" type="curve"/>
    </contour>
  </outline>
</glyph>
<glyph name="parenleft" format="1">
  <advance width="535"/>
  <unicode hex="0028"/>
  <outline>
    <contour>
      <point x="541" y="68" type="curve"/>
      <point x="541" y="-64" type="line"/>
      <point x="106" y="-64"/>
      <point x="115" y="530"/>
      <point x="115" y="861" type="curve" smooth="yes"/>
      <point x="115" y="1192"/>
      <point x="106" y="1787"/>
      <point x="541" y="1787" type="curve"/>
      <point x="541" y="1655" type="line"/>
      <point x="277" y="1655"/>
      <point x="267" y="1263"/>
      <point x="267" y="903" type="curve" smooth="yes"/>
      <point x="267" y="527"/>
      <point x="257" y="68"/>
    </contour>
  </outline>
</glyph>
<glyph name="parenright" format="1">
  <advance width="545"/>
  <unicode hex="0029"/>
  <outline>
    <contour>
      <point x="18" y="-64" type="curve"/>
      <point x="18" y="68" type="line"/>
      <point x="302" y="68"/>
      <point x="292" y="527"/>
      <point x="292" y="903" type="curve" smooth="yes"/>
      <point x="292" y="1263"/>
      <point x="282" y="1655"/>
      <point x="18" y="1655" type="curve"/>
      <point x="18" y="1787" type="line"/>
      <point x="453" y="1787"/>
      <point x="444" y="1192"/>
      <point x="444" y="861" type="curve" smooth="yes"/>
      <point x="444" y="530"/>
      <point x="453" y="-64"/>
    </contour>
  </outline>
</glyph>
<glyph name="plus" format="1">
  <advance width="649"/>
  <unicode hex="002B"/>
  <outline>
    <contour>
      <point x="274" y="384" type="line"/>
      <point x="274" y="576" type="line"/>
      <point x="82" y="576" type="line"/>
      <point x="82" y="691" type="line"/>
      <point x="274" y="691" type="line"/>
      <point x="274" y="883" type="line"/>
      <point x="395" y="883" type="line"/>
      <point x="395" y="691" type="line"/>
      <point x="587" y="691" type="line"/>
      <point x="587" y="576" type="line"/>
      <point x="395" y="576" type="line"/>
      <point x="395" y="384" type="line"/>
    </contour>
  </outline>
</glyph>
<glyph name="comma" format="1">
  <advance width="389"/>
  <unicode hex="002C"/>
  <outline>
    <contour>
      <point x="160" y="-256" type="curve"/>
      <point x="133" y="-201" type="line"/>
      <point x="225" y="-168"/>
      <point x="239" y="-47"/>
      <point x="239" y="0" type="curve"/>
      <point x="111" y="0" type="line"/>
      <point x="111" y="179" type="line"/>
      <point x="296" y="179" type="line"/>
      <point x="296" y="-50"/>
      <point x="301" y="-241"/>
    </contour>
  </outline>
</glyph>
<glyph name="hyphen" format="1">
  <advance width="532"/>
  <unicode hex="002D"/>
  <outline>
    <contour>
      <point x="117" y="448" type="line"/>
      <point x="117" y="563" type="line"/>
      <point x="430" y="563" type="line"/>
      <point x="430" y="448" type="line"/>
    </contour>
  </outline>
</glyph>
<glyph name="slash" format="1">
  <advance width="651"/>
  <unicode hex="002F"/>
  <outline>
    <contour>
      <point x="-29" y="0" type="line"/>
      <point x="523" y="1721" type="line"/>
      <point x="668" y="1721" type="line"/>
      <point x="115" y="0" type="line"/>
    </contour>
  </outline>
</glyph>
<glyph name="one" format="1">
  <advance width="532"/>
  <unicode hex="0031"/>
  <outline>
    <contour>
      <point x="233" y="0" type="line"/>
      <point x="233" y="1478" type="line"/>
      <point x="174" y="1438"/>
      <point x="86" y="1399"/>
      <point x="41" y="1389" type="curve"/>
      <point x="41" y="1533" type="line"/>
      <point x="102" y="1555"/>
      <point x="220" y="1618"/>
      <point x="282" y="1721" type="curve"/>
      <point x="385" y="1721" type="line"/>
      <point x="385" y="0" type="line"/>
    </contour>
  </outline>
</glyph>
<glyph name="three" format="1">
  <advance width="932"/>
  <unicode hex="0033"/>
  <outline>
    <contour>
      <point x="74" y="395" type="curve" smooth="yes"/>
      <point x="74" y="421" type="line"/>
      <point x="216" y="421" type="line"/>
      <point x="222" y="147"/>
      <point x="309" y="95"/>
      <point x="468" y="95" type="curve" smooth="yes"/>
      <point x="614" y="95"/>
      <point x="700" y="165"/>
      <point x="700" y="459" type="curve" smooth="yes"/>
      <point x="700" y="676"/>
      <point x="641" y="832"/>
      <point x="444" y="848" type="curve"/>
      <point x="444" y="977" type="line"/>
      <point x="637" y="985"/>
      <point x="700" y="1075"/>
      <point x="700" y="1317" type="curve" smooth="yes"/>
      <point x="700" y="1547"/>
      <point x="619" y="1623"/>
      <point x="469" y="1623" type="curve" smooth="yes"/>
      <point x="317" y="1623"/>
      <point x="227" y="1533"/>
      <point x="216" y="1292" type="curve"/>
      <point x="73" y="1292" type="line"/>
      <point x="73" y="1317" type="line" smooth="yes"/>
      <point x="73" y="1536"/>
      <point x="174" y="1745"/>
      <point x="472" y="1745" type="curve" smooth="yes"/>
      <point x="750" y="1745"/>
      <point x="852" y="1538"/>
      <point x="852" y="1316" type="curve" smooth="yes"/>
      <point x="852" y="1083"/>
      <point x="746" y="948"/>
      <point x="617" y="910" type="curve"/>
      <point x="719" y="869"/>
      <point x="852" y="770"/>
      <point x="852" y="462" type="curve" smooth="yes"/>
      <point x="852" y="179"/>
      <point x="749" y="-27"/>
      <point x="454" y="-27" type="curve" smooth="yes"/>
      <point x="172" y="-27"/>
      <point x="74" y="181"/>
    </contour>
  </outline>
</glyph>
<glyph name="eight" format="1">
  <advance width="954"/>
  <unicode hex="0038"/>
  <outline>
    <contour>
      <point x="477" y="977" type="curve"/>
      <point x="662" y="988"/>
      <point x="723" y="1079"/>
      <point x="723" y="1317" type="curve" smooth="yes"/>
      <point x="723" y="1547"/>
      <point x="642" y="1623"/>
      <point x="477" y="1623" type="curve" smooth="yes"/>
      <point x="312" y="1623"/>
      <point x="231" y="1547"/>
      <point x="231" y="1317" type="curve" smooth="yes"/>
      <point x="231" y="1079"/>
      <point x="292" y="988"/>
    </contour>
    <contour>
      <point x="477" y="847" type="curve"/>
      <point x="288" y="826"/>
      <point x="231" y="672"/>
      <point x="231" y="459" type="curve" smooth="yes"/>
      <point x="231" y="165"/>
      <point x="317" y="95"/>
      <point x="477" y="95" type="curve" smooth="yes"/>
      <point x="637" y="95"/>
      <point x="723" y="165"/>
      <point x="723" y="459" type="curve" smooth="yes"/>
      <point x="723" y="672"/>
      <point x="666" y="826"/>
    </contour>
    <contour>
      <point x="314" y="910" type="curve"/>
      <point x="185" y="948"/>
      <point x="79" y="1083"/>
      <point x="79" y="1316" type="curve" smooth="yes"/>
      <point x="79" y="1556"/>
      <point x="190" y="1745"/>
      <point x="477" y="1745" type="curve" smooth="yes"/>
      <point x="764" y="1745"/>
      <point x="875" y="1556"/>
      <point x="875" y="1316" type="curve" smooth="yes"/>
      <point x="875" y="1083"/>
      <point x="769" y="948"/>
      <point x="640" y="910" type="curve"/>
      <point x="742" y="869"/>
      <point x="875" y="770"/>
      <point x="875" y="462" type="curve" smooth="yes"/>
      <point x="875" y="179"/>
      <point x="772" y="-27"/>
      <point x="477" y="-27" type="curve" smooth="yes"/>
      <point x="182" y="-27"/>
      <point x="79" y="179"/>
      <point x="79" y="462" type="curve" smooth="yes"/>
      <point x="79" y="770"/>
      <point x="212" y="869"/>
    </contour>
  </outline>
</glyph>
<glyph name="nine" format="1">
  <advance width="990"/>
  <unicode hex="0039"/>
  <outline>
    <contour>
      <point x="724" y="907" type="curve"/>
      <point x="724" y="1217" type="line" smooth="yes"/>
      <point x="724" y="1550"/>
      <point x="646" y="1623"/>
      <point x="488" y="1623" type="curve" smooth="yes"/>
      <point x="316" y="1623"/>
      <point x="232" y="1531"/>
      <point x="232" y="1237" type="curve" smooth="yes"/>
      <point x="232" y="951"/>
      <point x="313" y="861"/>
      <point x="478" y="861" type="curve" smooth="yes"/>
      <point x="566" y="861"/>
      <point x="680" y="878"/>
    </contour>
    <contour>
      <point x="118" y="395" type="curve" smooth="yes"/>
      <point x="118" y="421" type="line"/>
      <point x="260" y="421" type="line"/>
      <point x="266" y="147"/>
      <point x="349" y="95"/>
      <point x="502" y="95" type="curve" smooth="yes"/>
      <point x="642" y="95"/>
      <point x="724" y="165"/>
      <point x="724" y="459" type="curve" smooth="yes"/>
      <point x="724" y="784" type="line"/>
      <point x="663" y="755"/>
      <point x="582" y="739"/>
      <point x="478" y="739" type="curve" smooth="yes"/>
      <point x="191" y="739"/>
      <point x="80" y="956"/>
      <point x="80" y="1236" type="curve" smooth="yes"/>
      <point x="80" y="1524"/>
      <point x="194" y="1745"/>
      <point x="488" y="1745" type="curve" smooth="yes"/>
      <point x="767" y="1745"/>
      <point x="876" y="1554"/>
      <point x="876" y="1228" type="curve" smooth="yes"/>
      <point x="876" y="462" type="line" smooth="yes"/>
      <point x="876" y="179"/>
      <point x="776" y="-27"/>
      <point x="488" y="-27" type="curve" smooth="yes"/>
      <point x="213" y="-27"/>
      <point x="118" y="181"/>
    </contour>
  </outline>
</glyph>
<glyph name="semicolon" format="1">
  <advance width="422"/>
  <unicode hex="003B"/>
  <outline>
    <contour>
      <point x="173" y="0" type="curve"/>
      <point x="147" y="55" type="line"/>
      <point x="238" y="88"/>
      <point x="253" y="209"/>
      <point x="253" y="256" type="curve"/>
      <point x="125" y="256" type="line"/>
      <point x="125" y="435" type="line"/>
      <point x="309" y="435" type="line"/>
      <point x="304" y="194"/>
      <point x="314" y="15"/>
    </contour>
    <contour>
      <point x="125" y="813" type="line"/>
      <point x="125" y="992" type="line"/>
      <point x="309" y="992" type="line"/>
      <point x="309" y="813" type="line"/>
    </contour>
  </outline>
</glyph>
<glyph name="less" format="1">
  <advance width="727"/>
  <unicode hex="003C"/>
  <outline>
    <contour>
      <point x="76" y="494" type="curve"/>
      <point x="76" y="709" type="line"/>
      <point x="645" y="1107" type="line"/>
      <point x="645" y="942" type="line"/>
      <point x="168" y="603" type="line"/>
      <point x="369" y="458"/>
      <point x="443" y="407"/>
      <point x="645" y="261" type="curve"/>
      <point x="645" y="94" type="line"/>
      <point x="645" y="94"/>
      <point x="219" y="392"/>
    </contour>
  </outline>
</glyph>
<glyph name="equal" format="1">
  <advance width="750"/>
  <unicode hex="003D"/>
  <outline>
    <contour>
      <point x="127" y="255" type="line"/>
      <point x="127" y="370" type="line"/>
      <point x="632" y="370" type="line"/>
      <point x="632" y="255" type="line"/>
    </contour>
    <contour>
      <point x="127" y="576" type="line"/>
      <point x="127" y="691" type="line"/>
      <point x="632" y="691" type="line"/>
      <point x="632" y="576" type="line"/>
    </contour>
  </outline>
</glyph>
<glyph name="question" format="1">
  <advance width="868"/>
  <unicode hex="003F"/>
  <outline>
    <contour>
      <point x="275" y="1" type="line"/>
      <point x="275" y="180" type="line"/>
      <point x="459" y="180" type="line"/>
      <point x="459" y="1" type="line"/>
    </contour>
    <contour>
      <point x="300" y="452" type="line"/>
      <point x="300" y="793" type="line"/>
      <point x="653" y="997"/>
      <point x="692" y="1211"/>
      <point x="692" y="1317" type="curve" smooth="yes"/>
      <point x="692" y="1540"/>
      <point x="568" y="1624"/>
      <point x="439" y="1624" type="curve" smooth="yes"/>
      <point x="287" y="1624"/>
      <point x="169" y="1519"/>
      <point x="168" y="1321" type="curve" smooth="yes"/>
      <point x="167" y="1179" type="line"/>
      <point x="33" y="1179" type="line"/>
      <point x="33" y="1325" type="line" smooth="yes"/>
      <point x="33" y="1600"/>
      <point x="237" y="1746"/>
      <point x="439" y="1746" type="curve" smooth="yes"/>
      <point x="635" y="1746"/>
      <point x="829" y="1609"/>
      <point x="829" y="1319" type="curve" smooth="yes"/>
      <point x="829" y="1072"/>
      <point x="690" y="895"/>
      <point x="434" y="736" type="curve"/>
      <point x="434" y="452" type="line"/>
    </contour>
  </outline>
</glyph>
<glyph name="G" format="1">
  <advance width="1088"/>
  <unicode hex="0047"/>
  <outline>
    <contour>
      <point x="114" y="481" type="curve" smooth="yes"/>
      <point x="114" y="1211" type="line" smooth="yes"/>
      <point x="114" y="1486"/>
      <point x="201" y="1745"/>
      <point x="567" y="1745" type="curve" smooth="yes"/>
      <point x="912" y="1745"/>
      <point x="962" y="1477"/>
      <point x="964" y="1171" type="curve"/>
      <point x="964" y="1159" type="line"/>
      <point x="812" y="1159" type="line"/>
      <point x="812" y="1172" type="line" smooth="yes"/>
      <point x="812" y="1396"/>
      <point x="817" y="1623"/>
      <point x="565" y="1623" type="curve" smooth="yes"/>
      <point x="333" y="1623"/>
      <point x="266" y="1453"/>
      <point x="266" y="1275" type="curve" smooth="yes"/>
      <point x="266" y="415" type="line" smooth="yes"/>
      <point x="266" y="255"/>
      <point x="314" y="95"/>
      <point x="553" y="95" type="curve" smooth="yes"/>
      <point x="775" y="95"/>
      <point x="823" y="264"/>
      <point x="823" y="415" type="curve" smooth="yes"/>
      <point x="823" y="706" type="line"/>
      <point x="612" y="706" type="line"/>
      <point x="612" y="821" type="line"/>
      <point x="975" y="821" type="line"/>
      <point x="975" y="0" type="line"/>
      <point x="908" y="0" type="line"/>
      <point x="863" y="168" type="line"/>
      <point x="817" y="48"/>
      <point x="689" y="-27"/>
      <point x="551" y="-27" type="curve" smooth="yes"/>
      <point x="127" y="-27"/>
      <point x="114" y="321"/>
    </contour>
  </outline>
</glyph>
<glyph name="N" format="1">
  <advance width="1083"/>
  <unicode hex="004E"/>
  <outline>
    <contour>
      <point x="146" y="0" type="line"/>
      <point x="146" y="1721" type="line"/>
      <point x="263" y="1721" type="line"/>
      <point x="808" y="358" type="line"/>
      <point x="808" y="1721" type="line"/>
      <point x="937" y="1721" type="line"/>
      <point x="937" y="0" type="line"/>
      <point x="823" y="0" type="line"/>
      <point x="277" y="1334" type="line"/>
      <point x="277" y="0" type="line"/>
    </contour>
  </outline>
</glyph>
<glyph name="T" format="1">
  <advance width="753"/>
  <unicode hex="0054"/>
  <outline>
    <contour>
      <point x="299" y="0" type="line"/>
      <point x="299" y="1599" type="line"/>
      <point x="-36" y="1599" type="line"/>
      <point x="-36" y="1721" type="line"/>
      <point x="789" y="1721" type="line"/>
      <point x="789" y="1599" type="line"/>
      <point x="451" y="1599" type="line"/>
      <point x="451" y="0" type="line"/>
    </contour>
  </outline>
</glyph>
<glyph name="V" format="1">
  <advance width="949"/>
  <unicode hex="0056"/>
  <outline>
    <contour>
      <point x="382" y="0" type="line"/>
      <point x="12" y="1721" type="line"/>
      <point x="176" y="1721" type="line"/>
      <point x="481" y="180" type="line"/>
      <point x="773" y="1721" type="line"/>
      <point x="937" y="1721" type="line"/>
      <point x="581" y="0" type="line"/>
    </contour>
  </outline>
</glyph>
<glyph name="Z" format="1">
  <advance width="866"/>
  <unicode hex="005A"/>
  <outline>
    <contour>
      <point x="60" y="0" type="line"/>
      <point x="60" y="141" type="line"/>
      <point x="665" y="1599" type="line"/>
      <point x="124" y="1599" type="line"/>
      <point x="124" y="1721" type="line"/>
      <point x="821" y="1721" type="line"/>
      <point x="821" y="1580" type="line"/>
      <point x="216" y="122" type="line"/>
      <point x="821" y="122" type="line"/>
      <point x="821" y="0" type="line"/>
    </contour>
  </outline>
</glyph>
<glyph name="bracketright" format="1">
  <advance width="504"/>
  <unicode hex="005D"/>
  <outline>
    <contour>
      <point x="25" y="-64" type="line"/>
      <point x="25" y="17" type="line"/>
      <point x="204" y="17" type="line"/>
      <point x="204" y="1698" type="line"/>
      <point x="25" y="1698" type="line"/>
      <point x="25" y="1779" type="line"/>
      <point x="356" y="1779" type="line"/>
      <point x="356" y="-64" type="line"/>
    </contour>
  </outline>
</glyph>
<glyph name="asciicircum" format="1">
  <advance width="739"/>
  <unicode hex="005E"/>
  <outline>
    <contour>
      <point x="220" y="896" type="line"/>
      <point x="43" y="896" type="line"/>
      <point x="111" y="1066"/>
      <point x="270" y="1459"/>
      <point x="270" y="1459" type="curve"/>
      <point x="477" y="1459" type="line"/>
      <point x="703" y="896" type="line"/>
      <point x="528" y="896" type="line"/>
      <point x="373" y="1436" type="line"/>
    </contour>
  </outline>
</glyph>
<glyph name="underscore" format="1">
  <advance width="913"/>
  <unicode hex="005F"/>
  <outline>
    <contour>
      <point x="115" y="0" type="line"/>
      <point x="115" y="115" type="line"/>
      <point x="811" y="115" type="line"/>
      <point x="811" y="0" type="line"/>
    </contour>
  </outline>
</glyph>
<glyph name="grave" format="1">
  <advance width="451"/>
  <unicode hex="0060"/>
  <outline>
    <contour>
      <point x="299" y="1324" type="line"/>
      <point x="70" y="1722" type="line"/>
      <point x="232" y="1722" type="line"/>
      <point x="355" y="1324" type="line"/>
    </contour>
  </outline>
</glyph>
<glyph name="b" format="1">
  <advance width="871"/>
  <unicode hex="0062"/>
  <outline>
    <contour>
      <point x="615" y="545" type="curve" smooth="yes"/>
      <point x="615" y="640" type="line" smooth="yes"/>
      <point x="615" y="1093"/>
      <point x="544" y="1114"/>
      <point x="471" y="1114" type="curve" smooth="yes"/>
      <point x="400" y="1114"/>
      <point x="332" y="1064"/>
      <point x="270" y="995" type="curve"/>
      <point x="270" y="205" type="line"/>
      <point x="329" y="134"/>
      <point x="405" y="84"/>
      <point x="466" y="84" type="curve" smooth="yes"/>
      <point x="542" y="84"/>
      <point x="615" y="96"/>
    </contour>
    <contour>
      <point x="120" y="0" type="line"/>
      <point x="120" y="1721" type="line"/>
      <point x="270" y="1721" type="line"/>
      <point x="270" y="1085" type="line"/>
      <point x="334" y="1179"/>
      <point x="419" y="1225"/>
      <point x="501" y="1225" type="curve" smooth="yes"/>
      <point x="623" y="1225"/>
      <point x="765" y="1178"/>
      <point x="765" y="641" type="curve" smooth="yes"/>
      <point x="765" y="546" type="line" smooth="yes"/>
      <point x="765" y="28"/>
      <point x="623" y="-27"/>
      <point x="512" y="-27" type="curve" smooth="yes"/>
      <point x="437" y="-27"/>
      <point x="340" y="4"/>
      <point x="270" y="113" type="curve"/>
      <point x="270" y="0" type="line"/>
    </contour>
  </outline>
</glyph>
<glyph name="c" format="1">
  <advance width="816"/>
  <unicode hex="0063"/>
  <outline>
    <contour>
      <point x="106" y="568" type="curve" smooth="yes"/>
      <point x="106" y="630" type="line" smooth="yes"/>
      <point x="106" y="909"/>
      <point x="106" y="1225"/>
      <point x="433" y="1225" type="curve" smooth="yes"/>
      <point x="672" y="1225"/>
      <point x="724" y="1033"/>
      <point x="736" y="817" type="curve" smooth="yes"/>
      <point x="736" y="813"/>
      <point x="737" y="810"/>
      <point x="737" y="806" type="curve"/>
      <point x="587" y="806" type="line"/>
      <point x="587" y="815" type="line"/>
      <point x="579" y="1034"/>
      <point x="544" y="1124"/>
      <point x="433" y="1124" type="curve" smooth="yes"/>
      <point x="276" y="1124"/>
      <point x="256" y="984"/>
      <point x="256" y="630" type="curve" smooth="yes"/>
      <point x="256" y="568" type="line" smooth="yes"/>
      <point x="256" y="208"/>
      <point x="285" y="74"/>
      <point x="433" y="74" type="curve" smooth="yes"/>
      <point x="540" y="74"/>
      <point x="577" y="164"/>
      <point x="587" y="393" type="curve"/>
      <point x="587" y="403" type="line"/>
      <point x="738" y="403" type="line"/>
      <point x="738" y="396" type="line"/>
      <point x="728" y="164"/>
      <point x="680" y="-27"/>
      <point x="433" y="-27" type="curve" smooth="yes"/>
      <point x="106" y="-27"/>
      <point x="106" y="267"/>
    </contour>
  </outline>
</glyph>
<glyph name="n" format="1">
  <advance width="860"/>
  <unicode hex="006E"/>
  <outline>
    <contour>
      <point x="120" y="0" type="line"/>
      <point x="120" y="1198" type="line"/>
      <point x="270" y="1198" type="line"/>
      <point x="270" y="1085" type="line"/>
      <point x="337" y="1183"/>
      <point x="433" y="1225"/>
      <point x="524" y="1225" type="curve" smooth="yes"/>
      <point x="631" y="1225"/>
      <point x="748" y="1133"/>
      <point x="748" y="941" type="curve" smooth="yes"/>
      <point x="748" y="0" type="line"/>
      <point x="596" y="0" type="line"/>
      <point x="596" y="944" type="line" smooth="yes"/>
      <point x="596" y="1071"/>
      <point x="538" y="1114"/>
      <point x="469" y="1114" type="curve" smooth="yes"/>
      <point x="407" y="1114"/>
      <point x="330" y="1068"/>
      <point x="270" y="993" type="curve"/>
      <point x="270" y="0" type="line"/>
    </contour>
  </outline>
</glyph>
<glyph name="p" format="1">
  <advance width="871"/>
  <unicode hex="0070"/>
  <outline>
    <contour>
      <point x="615" y="558" type="curve" smooth="yes"/>
      <point x="615" y="653" type="line" smooth="yes"/>
      <point x="615" y="1102"/>
      <point x="542" y="1114"/>
      <point x="466" y="1114" type="curve" smooth="yes"/>
      <point x="405" y="1114"/>
      <point x="329" y="1064"/>
      <point x="270" y="993" type="curve"/>
      <point x="270" y="203" type="line"/>
      <point x="332" y="134"/>
      <point x="400" y="84"/>
      <point x="471" y="84" type="curve" smooth="yes"/>
      <point x="544" y="84"/>
      <point x="615" y="105"/>
    </contour>
    <contour>
      <point x="120" y="-385" type="line"/>
      <point x="120" y="1198" type="line"/>
      <point x="270" y="1198" type="line"/>
      <point x="270" y="1085" type="line"/>
      <point x="340" y="1194"/>
      <point x="437" y="1225"/>
      <point x="512" y="1225" type="curve" smooth="yes"/>
      <point x="623" y="1225"/>
      <point x="765" y="1170"/>
      <point x="765" y="652" type="curve" smooth="yes"/>
      <point x="765" y="557" type="line" smooth="yes"/>
      <point x="765" y="20"/>
      <point x="623" y="-27"/>
      <point x="501" y="-27" type="curve" smooth="yes"/>
      <point x="419" y="-27"/>
      <point x="334" y="19"/>
      <point x="270" y="113" type="curve"/>
      <point x="270" y="-385" type="line"/>
    </contour>
  </outline>
</glyph>
<glyph name="r" format="1">
  <advance width="534"/>
  <unicode hex="0072"/>
  <outline>
    <contour>
      <point x="120" y="0" type="line"/>
      <point x="120" y="1198" type="line"/>
      <point x="270" y="1198" type="line"/>
      <point x="270" y="1029" type="line"/>
      <point x="310" y="1164"/>
      <point x="432" y="1215"/>
      <point x="522" y="1217" type="curve"/>
      <point x="522" y="1066" type="line"/>
      <point x="522" y="1066"/>
      <point x="511" y="1070"/>
      <point x="499" y="1070" type="curve" smooth="yes"/>
      <point x="384" y="1070"/>
      <point x="270" y="1035"/>
      <point x="270" y="894" type="curve" smooth="yes"/>
      <point x="270" y="0" type="line"/>
    </contour>
  </outline>
</glyph>
<glyph name="v" format="1">
  <advance width="747"/>
  <unicode hex="0076"/>
  <outline>
    <contour>
      <point x="297" y="0" type="line"/>
      <point x="25" y="1198" type="line"/>
      <point x="171" y="1198" type="line"/>
      <point x="385" y="136" type="line"/>
      <point x="579" y="1198" type="line"/>
      <point x="722" y="1198" type="line"/>
      <point x="472" y="0" type="line"/>
    </contour>
  </outline>
</glyph>
<glyph name="z" format="1">
  <advance width="695"/>
  <unicode hex="007A"/>
  <outline>
    <contour>
      <point x="47" y="0" type="line"/>
      <point x="47" y="144" type="line"/>
      <point x="519" y="1084" type="line"/>
      <point x="111" y="1084" type="line"/>
      <point x="111" y="1198" type="line"/>
      <point x="660" y="1198" type="line"/>
      <point x="660" y="1055" type="line"/>
      <point x="199" y="115" type="line"/>
      <point x="654" y="115" type="line"/>
      <point x="654" y="0" type="line"/>
    </contour>
  </outline>
</glyph>
<glyph name="cent" format="1">
  <advance width="760"/>
  <unicode hex="00A2"/>
  <outline>
    <contour>
      <point x="370" y="87" type="line"/>
      <point x="370" y="240" type="line"/>
      <point x="76" y="258"/>
      <point x="76" y="523"/>
      <point x="76" y="794" type="curve" smooth="yes"/>
      <point x="76" y="856" type="line" smooth="yes"/>
      <point x="76" y="1105"/>
      <point x="76" y="1390"/>
      <point x="369" y="1410" type="curve"/>
      <point x="369" y="1543" type="line"/>
      <point x="434" y="1543" type="line"/>
      <point x="434" y="1409" type="line"/>
      <point x="645" y="1393"/>
      <point x="694" y="1211"/>
      <point x="706" y="1006" type="curve" smooth="yes"/>
      <point x="706" y="1001"/>
      <point x="707" y="997"/>
      <point x="707" y="992" type="curve"/>
      <point x="557" y="992" type="line"/>
      <point x="557" y="1006" type="line"/>
      <point x="553" y="1116"/>
      <point x="549" y="1309"/>
      <point x="401" y="1309" type="curve" smooth="yes"/>
      <point x="237" y="1309"/>
      <point x="230" y="1173"/>
      <point x="226" y="856" type="curve"/>
      <point x="226" y="794" type="line" smooth="yes"/>
      <point x="226" y="476"/>
      <point x="248" y="339"/>
      <point x="400" y="339" type="curve" smooth="yes"/>
      <point x="544" y="339"/>
      <point x="550" y="528"/>
      <point x="556" y="652" type="curve" smooth="yes"/>
      <point x="556" y="658"/>
      <point x="557" y="664"/>
      <point x="557" y="669" type="curve"/>
      <point x="708" y="669" type="line"/>
      <point x="708" y="665"/>
      <point x="707" y="661"/>
      <point x="707" y="657" type="curve" smooth="yes"/>
      <point x="697" y="437"/>
      <point x="653" y="256"/>
      <point x="435" y="240" type="curve"/>
      <point x="435" y="87" type="line"/>
    </contour>
  </outline>
</glyph>
<glyph name="uni00AD" format="1">
  <advance width="659"/>
  <unicode hex="00AD"/>
  <outline>
    <contour>
      <point x="117" y="448" type="line"/>
      <point x="117" y="563" type="line"/>
      <point x="558" y="563" type="line"/>
      <point x="558" y="448" type="line"/>
    </contour>
  </outline>
</glyph>
<glyph name="degree" format="1">
  <advance width="637"/>
  <unicode hex="00B0"/>
  <outline>
    <contour>
      <point x="317" y="1722" type="curve" smooth="yes"/>
      <point x="470" y="1722"/>
      <point x="536" y="1610"/>
      <point x="536" y="1504" type="curve" smooth="yes"/>
      <point x="536" y="1398"/>
      <point x="470" y="1286"/>
      <point x="317" y="1286" type="curve" smooth="yes"/>
      <point x="164" y="1286"/>
      <point x="98" y="1398"/>
      <point x="98" y="1504" type="curve" smooth="yes"/>
      <point x="98" y="1610"/>
      <point x="164" y="1722"/>
    </contour>
    <contour>
      <point x="176" y="1504" type="curve" smooth="yes"/>
      <point x="176" y="1438"/>
      <point x="210" y="1357"/>
      <point x="317" y="1357" type="curve" smooth="yes"/>
      <point x="424" y="1357"/>
      <point x="458" y="1438"/>
      <point x="458" y="1504" type="curve" smooth="yes"/>
      <point x="458" y="1570"/>
      <point x="424" y="1651"/>
      <point x="317" y="1651" type="curve" smooth="yes"/>
      <point x="210" y="1651"/>
      <point x="176" y="1570"/>
    </contour>
  </outline>
</glyph>
<glyph name="plusminus" format="1">
  <advance width="702"/>
  <unicode hex="00B1"/>
  <outline>
    <contour>
      <point x="298" y="384" type="line"/>
      <point x="298" y="576" type="line"/>
      <point x="106" y="576" type="line"/>
      <point x="106" y="691" type="line"/>
      <point x="298" y="691" type="line"/>
      <point x="298" y="883" type="line"/>
      <point x="418" y="883" type="line"/>
      <point x="418" y="691" type="line"/>
      <point x="610" y="691" type="line"/>
      <point x="610" y="576" type="line"/>
      <point x="418" y="576" type="line"/>
      <point x="418" y="384" type="line"/>
    </contour>
    <contour>
      <point x="106" y="0" type="line"/>
      <point x="106" y="115" type="line"/>
      <point x="610" y="115" type="line"/>
      <point x="610" y="0" type="line"/>
    </contour>
  </outline>
</glyph>
<glyph name="paragraph" format="1">
  <advance width="969"/>
  <unicode hex="00B6"/>
  <outline>
    <contour>
      <point x="389" y="0" type="line"/>
      <point x="389" y="876" type="line"/>
      <point x="166" y="876"/>
      <point x="23" y="978"/>
      <point x="23" y="1165" type="curve" smooth="yes"/>
      <point x="23" y="1345"/>
      <point x="142" y="1459"/>
      <point x="394" y="1459" type="curve" smooth="yes"/>
      <point x="831" y="1459" type="line"/>
      <point x="831" y="0" type="line"/>
      <point x="725" y="0" type="line"/>
      <point x="725" y="876" type="line"/>
      <point x="514" y="876" type="line"/>
      <point x="514" y="0" type="line"/>
    </contour>
  </outline>
</glyph>
<glyph name="periodcentered" format="1">
  <advance width="446"/>
  <unicode hex="00B7"/>
  <outline>
    <contour>
      <point x="131" y="704" type="line"/>
      <point x="131" y="883" type="line"/>
      <point x="316" y="883" type="line"/>
      <point x="316" y="704" type="line"/>
    </contour>
  </outline>
</glyph>
<glyph name="cedilla" format="1">
  <advance width="449"/>
  <unicode hex="00B8"/>
  <outline>
    <contour>
      <point x="111" y="-394" type="curve"/>
      <point x="111" y="-335" type="line"/>
      <point x="218" y="-335"/>
      <point x="258" y="-307"/>
      <point x="258" y="-268" type="curve" smooth="yes"/>
      <point x="258" y="-226"/>
      <point x="214" y="-173"/>
      <point x="155" y="-134" type="curve"/>
      <point x="155" y="0" type="line"/>
      <point x="219" y="0" type="line"/>
      <point x="219" y="-115" type="line"/>
      <point x="316" y="-172"/>
      <point x="361" y="-229"/>
      <point x="361" y="-277" type="curve" smooth="yes"/>
      <point x="361" y="-345"/>
      <point x="270" y="-394"/>
    </contour>
  </outline>
</glyph>
<glyph name="onequarter" format="1">
  <advance width="1499"/>
  <unicode hex="00BC"/>
  <outline>
    <contour>
      <point x="192" y="588" type="line"/>
      <point x="192" y="1497" type="line"/>
      <point x="133" y="1456"/>
      <point x="45" y="1418"/>
      <point x="0" y="1408" type="curve"/>
      <point x="0" y="1533" type="line"/>
      <point x="61" y="1555"/>
      <point x="179" y="1618"/>
      <point x="241" y="1721" type="curve"/>
      <point x="328" y="1721" type="line"/>
      <point x="328" y="588" type="line"/>
    </contour>
    <contour>
      <point x="348" y="0" type="line"/>
      <point x="900" y="1721" type="line"/>
      <point x="1045" y="1721" type="line"/>
      <point x="492" y="0" type="line"/>
    </contour>
    <contour>
      <point x="1028" y="378" type="line"/>
      <point x="1258" y="378" type="line"/>
      <point x="1257" y="1016" type="line"/>
    </contour>
    <contour>
      <point x="883" y="276" type="line"/>
      <point x="883" y="371" type="line"/>
      <point x="1184" y="1132" type="line"/>
      <point x="1394" y="1132" type="line"/>
      <point x="1394" y="378" type="line"/>
      <point x="1528" y="378" type="line"/>
      <point x="1528" y="276" type="line"/>
      <point x="1394" y="276" type="line"/>
      <point x="1394" y="-1" type="line"/>
      <point x="1258" y="-1" type="line"/>
      <point x="1258" y="276" type="line"/>
    </contour>
  </outline>
</glyph>
<glyph name="multiply" format="1">
  <advance width="674"/>
  <unicode hex="00D7"/>
  <outline>
    <contour>
      <point x="51" y="410" type="line"/>
      <point x="243" y="602" type="line"/>
      <point x="51" y="794" type="line"/>
      <point x="127" y="869" type="line"/>
      <point x="319" y="677" type="line"/>
      <point x="511" y="869" type="line"/>
      <point x="587" y="794" type="line"/>
      <point x="395" y="602" type="line"/>
      <point x="395" y="602"/>
      <point x="562" y="434"/>
      <point x="587" y="410" type="curve"/>
      <point x="511" y="334" type="line"/>
      <point x="319" y="526" type="line"/>
      <point x="127" y="334" type="line"/>
    </contour>
  </outline>
</glyph>
<glyph name="Thorn" format="1">
  <advance width="1058"/>
  <unicode hex="00DE"/>
  <outline>
    <contour>
      <point x="298" y="628" type="line"/>
      <point x="584" y="627" type="line" smooth="yes"/>
      <point x="758" y="626"/>
      <point x="822" y="746"/>
      <point x="822" y="996" type="curve" smooth="yes"/>
      <point x="822" y="1235"/>
      <point x="743" y="1340"/>
      <point x="584" y="1340" type="curve" smooth="yes"/>
      <point x="298" y="1340" type="line"/>
    </contour>
    <contour>
      <point x="146" y="0" type="line"/>
      <point x="146" y="1721" type="line"/>
      <point x="298" y="1721" type="line"/>
      <point x="298" y="1462" type="line"/>
      <point x="567" y="1462" type="line" smooth="yes"/>
      <point x="874" y="1462"/>
      <point x="974" y="1247"/>
      <point x="974" y="999" type="curve" smooth="yes"/>
      <point x="974" y="754"/>
      <point x="894" y="506"/>
      <point x="566" y="506" type="curve" smooth="yes"/>
      <point x="298" y="506" type="line"/>
      <point x="298" y="0" type="line"/>
    </contour>
  </outline>
</glyph>
<glyph name="divide" format="1">
  <advance width="674"/>
  <unicode hex="00F7"/>
  <outline>
    <contour>
      <point x="227" y="233" type="line"/>
      <point x="227" y="412" type="line"/>
      <point x="411" y="412" type="line"/>
      <point x="411" y="233" type="line"/>
    </contour>
    <contour>
      <point x="227" y="879" type="line"/>
      <point x="227" y="1058" type="line"/>
      <point x="411" y="1058" type="line"/>
      <point x="411" y="879" type="line"/>
    </contour>
    <contour>
      <point x="35" y="576" type="line"/>
      <point x="35" y="691" type="line"/>
      <point x="603" y="691" type="line"/>
      <point x="603" y="576" type="line"/>
    </contour>
  </outline>
</glyph>
<glyph name="Hbar" format="1">
  <advance width="1118"/>
  <unicode hex="0126"/>
  <outline>
    <contour>
      <point x="292" y="942" type="line"/>
      <point x="822" y="942" type="line"/>
      <point x="822" y="1331" type="line"/>
      <point x="292" y="1331" type="line"/>
    </contour>
    <contour>
      <point x="140" y="0" type="line"/>
      <point x="140" y="1331" type="line"/>
      <point x="100" y="1331" type="line"/>
      <point x="100" y="1425" type="line"/>
      <point x="140" y="1425" type="line"/>
      <point x="140" y="1721" type="line"/>
      <point x="292" y="1721" type="line"/>
      <point x="292" y="1425" type="line"/>
      <point x="822" y="1425" type="line"/>
      <point x="822" y="1721" type="line"/>
      <point x="974" y="1721" type="line"/>
      <point x="974" y="1425" type="line"/>
      <point x="1014" y="1425" type="line"/>
      <point x="1014" y="1331" type="line"/>
      <point x="974" y="1331" type="line"/>
      <point x="974" y="0" type="line"/>
      <point x="822" y="0" type="line"/>
      <point x="822" y="836" type="line"/>
      <point x="292" y="836" type="line"/>
      <point x="292" y="0" type="line"/>
    </contour>
  </outline>
</glyph>
<glyph name="hbar" format="1">
  <advance width="912"/>
  <unicode hex="0127"/>
  <outline>
    <contour>
      <point x="154" y="0" type="line"/>
      <point x="154" y="1403" type="line"/>
      <point x="31" y="1403" type="line"/>
      <point x="31" y="1498" type="line"/>
      <point x="154" y="1498" type="line"/>
      <point x="154" y="1721" type="line"/>
      <point x="304" y="1721" type="line"/>
      <point x="304" y="1498" type="line"/>
      <point x="472" y="1498" type="line"/>
      <point x="472" y="1403" type="line"/>
      <point x="304" y="1403" type="line"/>
      <point x="304" y="1085" type="line"/>
      <point x="368" y="1184"/>
      <point x="461" y="1225"/>
      <point x="548" y="1225" type="curve" smooth="yes"/>
      <point x="660" y="1225"/>
      <point x="782" y="1134"/>
      <point x="782" y="942" type="curve" smooth="yes"/>
      <point x="782" y="0" type="line"/>
      <point x="630" y="0" type="line"/>
      <point x="630" y="934" type="line" smooth="yes"/>
      <point x="630" y="1048"/>
      <point x="563" y="1088"/>
      <point x="509" y="1088" type="curve" smooth="yes"/>
      <point x="444" y="1088"/>
      <point x="365" y="1049"/>
      <point x="305" y="992" type="curve"/>
      <point x="305" y="0" type="line"/>
    </contour>
  </outline>
</glyph>
<glyph name="lslash" format="1">
  <advance width="530"/>
  <unicode hex="0142"/>
  <outline>
    <contour>
      <point x="183" y="0" type="line"/>
      <point x="183" y="873" type="line"/>
      <point x="43" y="806" type="line"/>
      <point x="43" y="921" type="line"/>
      <point x="183" y="988" type="line"/>
      <point x="183" y="1721" type="line"/>
      <point x="333" y="1721" type="line"/>
      <point x="333" y="1061" type="line"/>
      <point x="469" y="1127" type="line"/>
      <point x="469" y="1012" type="line"/>
      <point x="333" y="946" type="line"/>
      <point x="333" y="0" type="line"/>
    </contour>
  </outline>
</glyph>
<glyph name="oe" format="1">
  <advance width="1332"/>
  <unicode hex="0153"/>
  <outline>
    <contour>
      <point x="744" y="702" type="curve"/>
      <point x="1076" y="702" type="line"/>
      <point x="1074" y="883"/>
      <point x="1092" y="1124"/>
      <point x="930" y="1124" type="curve" smooth="yes"/>
      <point x="748" y="1124"/>
      <point x="744" y="967"/>
    </contour>
    <contour>
      <point x="258" y="630" type="curve" smooth="yes"/>
      <point x="258" y="568" type="line" smooth="yes"/>
      <point x="258" y="208"/>
      <point x="285" y="74"/>
      <point x="425" y="74" type="curve" smooth="yes"/>
      <point x="565" y="74"/>
      <point x="592" y="208"/>
      <point x="592" y="568" type="curve" smooth="yes"/>
      <point x="592" y="630" type="line" smooth="yes"/>
      <point x="592" y="984"/>
      <point x="571" y="1124"/>
      <point x="425" y="1124" type="curve" smooth="yes"/>
      <point x="277" y="1124"/>
      <point x="258" y="984"/>
    </contour>
    <contour>
      <point x="108" y="568" type="curve" smooth="yes"/>
      <point x="108" y="630" type="line" smooth="yes"/>
      <point x="108" y="909"/>
      <point x="108" y="1225"/>
      <point x="425" y="1225" type="curve" smooth="yes"/>
      <point x="547" y="1225"/>
      <point x="622" y="1178"/>
      <point x="668" y="1104" type="curve"/>
      <point x="727" y="1200"/>
      <point x="817" y="1225"/>
      <point x="923" y="1225" type="curve" smooth="yes"/>
      <point x="1140" y="1225"/>
      <point x="1225" y="1074"/>
      <point x="1225" y="751" type="curve" smooth="yes"/>
      <point x="1225" y="702"/>
      <point x="1225" y="676"/>
      <point x="1223" y="628" type="curve"/>
      <point x="743" y="628" type="line"/>
      <point x="743" y="445" type="line" smooth="yes"/>
      <point x="743" y="122"/>
      <point x="810" y="74"/>
      <point x="922" y="74" type="curve" smooth="yes"/>
      <point x="999" y="74"/>
      <point x="1078" y="142"/>
      <point x="1081" y="367" type="curve"/>
      <point x="1220" y="367" type="line"/>
      <point x="1202" y="162"/>
      <point x="1147" y="-27"/>
      <point x="924" y="-27" type="curve" smooth="yes"/>
      <point x="804" y="-27"/>
      <point x="721" y="3"/>
      <point x="668" y="87" type="curve"/>
      <point x="622" y="17"/>
      <point x="547" y="-27"/>
      <point x="425" y="-27" type="curve" smooth="yes"/>
      <point x="108" y="-27"/>
      <point x="108" y="267"/>
    </contour>
  </outline>
</glyph>
<glyph name="uni0237" format="1">
  <advance width="410"/>
  <unicode hex="0237"/>
  <outline>
    <contour>
      <point x="-72" y="-312" type="curve"/>
      <point x="-72" y="-204" type="line"/>
      <point x="-49" y="-205"/>
      <point x="-26" y="-206"/>
      <point x="-16" y="-206" type="curve" smooth="yes"/>
      <point x="120" y="-206"/>
      <point x="120" y="-80"/>
      <point x="120" y="-18" type="curve" smooth="yes"/>
      <point x="120" y="1198" type="line"/>
      <point x="270" y="1198" type="line"/>
      <point x="270" y="-46" type="line" smooth="yes"/>
      <point x="270" y="-242"/>
      <point x="172" y="-320"/>
      <point x="9" y="-320" type="curve" smooth="yes"/>
      <point x="-4" y="-320"/>
      <point x="-41" y="-318"/>
    </contour>
  </outline>
</glyph>
<glyph name="caron" format="1">
  <advance width="618"/>
  <unicode hex="02C7"/>
  <outline>
    <contour>
      <point x="283" y="1324" type="line"/>
      <point x="74" y="1671" type="line"/>
      <point x="216" y="1671" type="line"/>
      <point x="311" y="1434" type="line"/>
      <point x="406" y="1671" type="line"/>
      <point x="548" y="1671" type="line"/>
      <point x="339" y="1324" type="line"/>
    </contour>
  </outline>
</glyph>
<glyph name="ogonek" format="1">
  <advance width="475"/>
  <unicode hex="02DB"/>
  <outline>
    <contour>
      <point x="378" y="-288" type="curve"/>
      <point x="378" y="-358" type="line"/>
      <point x="196" y="-358"/>
      <point x="98" y="-344"/>
      <point x="98" y="-219" type="curve" smooth="yes"/>
      <point x="98" y="-114"/>
      <point x="211" y="-21"/>
      <point x="253" y="0" type="curve"/>
      <point x="322" y="0" type="line"/>
      <point x="253" y="-62"/>
      <point x="191" y="-131"/>
      <point x="191" y="-210" type="curve" smooth="yes"/>
      <point x="191" y="-288"/>
      <point x="254" y="-288"/>
    </contour>
  </outline>
</glyph>
<glyph name="tilde" format="1">
  <advance width="754"/>
  <unicode hex="02DC"/>
  <outline>
    <contour>
      <point x="217" y="1376" type="curve"/>
      <point x="102" y="1376" type="line"/>
      <point x="104" y="1420"/>
      <point x="119" y="1563"/>
      <point x="289" y="1563" type="curve" smooth="yes"/>
      <point x="344" y="1563"/>
      <point x="424" y="1487"/>
      <point x="474" y="1487" type="curve" smooth="yes"/>
      <point x="510" y="1487"/>
      <point x="533" y="1501"/>
      <point x="540" y="1554" type="curve"/>
      <point x="656" y="1554" type="line"/>
      <point x="653" y="1544"/>
      <point x="656" y="1364"/>
      <point x="472" y="1364" type="curve" smooth="yes"/>
      <point x="401" y="1364"/>
      <point x="332" y="1442"/>
      <point x="279" y="1442" type="curve" smooth="yes"/>
      <point x="243" y="1442"/>
      <point x="224" y="1429"/>
    </contour>
  </outline>
</glyph>
<glyph name="quotedblright" format="1">
  <advance width="686"/>
  <unicode hex="201D"/>
  <outline>
    <contour>
      <point x="443" y="1286" type="curve"/>
      <point x="416" y="1341" type="line"/>
      <point x="517" y="1374"/>
      <point x="522" y="1504"/>
      <point x="522" y="1542" type="curve"/>
      <point x="394" y="1542" type="line"/>
      <point x="394" y="1721" type="line"/>
      <point x="579" y="1721" type="line"/>
      <point x="579" y="1418"/>
      <point x="564" y="1301"/>
    </contour>
    <contour>
      <point x="149" y="1286" type="curve"/>
      <point x="122" y="1341" type="line"/>
      <point x="223" y="1374"/>
      <point x="228" y="1504"/>
      <point x="228" y="1542" type="curve"/>
      <point x="100" y="1542" type="line"/>
      <point x="100" y="1721" type="line"/>
      <point x="285" y="1721" type="line"/>
      <point x="285" y="1418"/>
      <point x="270" y="1301"/>
    </contour>
  </outline>
</glyph>
<glyph name="guilsinglright" format="1">
  <advance width="561"/>
  <unicode hex="203A"/>
  <outline>
    <contour>
      <point x="78" y="124" type="line"/>
      <point x="78" y="324" type="line"/>
      <point x="354" y="641" type="line"/>
      <point x="78" y="956" type="line"/>
      <point x="78" y="1156" type="line"/>
      <point x="466" y="704" type="line"/>
      <point x="466" y="576" type="line"/>
    </contour>
  </outline>
</glyph>
<glyph name="minus" format="1">
  <advance width="702"/>
  <unicode hex="2212"/>
  <outline>
    <contour>
      <point x="106" y="461" type="line"/>
      <point x="106" y="576" type="line"/>
      <point x="610" y="576" type="line"/>
      <point x="610" y="461" type="line"/>
    </contour>
  </outline>
</glyph>
<glyph name="integral" format="1">
  <advance width="500"/>
  <unicode hex="222B"/>
  <outline>
    <contour>
      <point x="-41" y="-381" type="curve"/>
      <point x="-41" y="-272" type="line"/>
      <point x="-29" y="-275"/>
      <point x="20" y="-278"/>
      <point x="33" y="-278" type="curve" smooth="yes"/>
      <point x="153" y="-278"/>
      <point x="148" y="-191"/>
      <point x="148" y="-120" type="curve" smooth="yes"/>
      <point x="148" y="1114" type="line"/>
      <point x="10" y="1114" type="line"/>
      <point x="10" y="1198" type="line"/>
      <point x="148" y="1198" type="line"/>
      <point x="148" y="1367" type="line" smooth="yes"/>
      <point x="148" y="1476"/>
      <point x="160" y="1652"/>
      <point x="365" y="1652" type="curve" smooth="yes"/>
      <point x="406" y="1652"/>
      <point x="450" y="1648"/>
      <point x="487" y="1639" type="curve"/>
      <point x="487" y="1530" type="line"/>
      <point x="475" y="1533"/>
      <point x="426" y="1536"/>
      <point x="413" y="1536" type="curve" smooth="yes"/>
      <point x="293" y="1536"/>
      <point x="298" y="1449"/>
      <point x="298" y="1378" type="curve" smooth="yes"/>
      <point x="298" y="1198" type="line"/>
      <point x="519" y="1198" type="line"/>
      <point x="519" y="1114" type="line"/>
      <point x="298" y="1114" type="line"/>
      <point x="298" y="-110" type="line" smooth="yes"/>
      <point x="298" y="-219"/>
      <point x="286" y="-394"/>
      <point x="81" y="-394" type="curve" smooth="yes"/>
      <point x="40" y="-394"/>
      <point x="-4" y="-390"/>
    </contour>
  </outline>
</glyph>
<glyph name="tt" format="1">
  <advance width="1082"/>
  <outline>
    <contour>
      <point x="179" y="283" type="curve" smooth="yes"/>
      <point x="179" y="1114" type="line"/>
      <point x="16" y="1114" type="line"/>
      <point x="16" y="1198" type="line"/>
      <point x="179" y="1198" type="line"/>
      <point x="179" y="1623" type="line"/>
      <point x="329" y="1623" type="line"/>
      <point x="329" y="1198" type="line"/>
      <point x="667" y="1198" type="line"/>
      <point x="667" y="1623" type="line"/>
      <point x="817" y="1623" type="line"/>
      <point x="817" y="1198" type="line"/>
      <point x="1009" y="1198" type="line"/>
      <point x="1009" y="1114" type="line"/>
      <point x="817" y="1114" type="line"/>
      <point x="817" y="290" type="line" smooth="yes"/>
      <point x="817" y="169"/>
      <point x="821" y="94"/>
      <point x="919" y="94" type="curve" smooth="yes"/>
      <point x="948" y="94"/>
      <point x="978" y="96"/>
      <point x="1007" y="102" type="curve"/>
      <point x="1007" y="-1" type="line"/>
      <point x="956" y="-14"/>
      <point x="915" y="-18"/>
      <point x="877" y="-18" type="curve" smooth="yes"/>
      <point x="684" y="-18"/>
      <point x="667" y="130"/>
      <point x="667" y="283" type="curve" smooth="yes"/>
      <point x="667" y="1114" type="line"/>
      <point x="329" y="1114" type="line"/>
      <point x="329" y="290" type="line" smooth="yes"/>
      <point x="329" y="169"/>
      <point x="333" y="94"/>
      <point x="431" y="94" type="curve" smooth="yes"/>
      <point x="460" y="94"/>
      <point x="490" y="96"/>
      <point x="519" y="102" type="curve"/>
      <point x="519" y="-1" type="line"/>
      <point x="468" y="-14"/>
      <point x="427" y="-18"/>
      <point x="389" y="-18" type="curve" smooth="yes"/>
      <point x="196" y="-18"/>
      <point x="179" y="130"/>
    </contour>
  </outline>
</glyph>
